<svg width="40" height="40" viewBox="0 0 40 40" fill="none" xmlns="http://www.w3.org/2000/svg">
<path d="M15.2 16.75C15.2 16.3358 14.8642 16 14.45 16C14.0358 16 13.7 16.3358 13.7 16.75V23.25C13.7 23.6642 14.0358 24 14.45 24C14.8642 24 15.2 23.6642 15.2 23.25V16.75Z" fill="white"/>
<path d="M21.8499 12C22.2641 12 22.5999 12.3358 22.5999 12.75V27.25C22.5999 27.6642 22.2641 28 21.8499 28C21.4357 28 21.0999 27.6642 21.0999 27.25V12.75C21.0999 12.3358 21.4357 12 21.8499 12Z" fill="white"/>
<path d="M18.15 18C18.5642 18 18.9 18.3358 18.9 18.75V21.25C18.9 21.6642 18.5642 22 18.15 22C17.7357 22 17.4 21.6642 17.4 21.25V18.75C17.4 18.3358 17.7357 18 18.15 18Z" fill="white"/>
<path d="M24.7999 23.25C24.7999 23.6642 25.1356 24 25.5499 24C25.9641 24 26.2999 23.6642 26.2999 23.25V16.75C26.2999 16.3358 25.9641 16 25.5499 16C25.1356 16 24.7999 16.3358 24.7999 16.75V23.25Z" fill="white"/>
<path d="M29.25 22C28.8358 22 28.5 21.6642 28.5 21.25V18.75C28.5 18.3358 28.8358 18 29.25 18C29.6642 18 30 18.3358 30 18.75V21.25C30 21.6642 29.6642 22 29.25 22Z" fill="white"/>
<path d="M10.75 18C11.1642 18 11.5 18.3358 11.5 18.75V21.25C11.5 21.6642 11.1642 22 10.75 22C10.3358 22 10 21.6642 10 21.25V18.75C10 18.3358 10.3358 18 10.75 18Z" fill="white"/>
</svg>
